{
	"asset":{
		"generator":"Khronos glTF Blender I/O v4.2.60",
		"version":"2.0"
	},
	"scene":0,
	"scenes":[
		{
			"name":"Scene",
			"nodes":[
				33
			]
		}
	],
	"nodes":[
		{
			"mesh":0,
			"name":"Object_5"
		},
		{
			"children":[
				0
			],
			"name":"/sketchfab-data/processing/6eab71859ab04438983aa54e0338d794"
		},
		{
			"mesh":1,
			"name":"Object_7"
		},
		{
			"children":[
				2
			],
			"name":"/sketchfab-data/processing/6eab71859ab04438983aa54e0338d794.001"
		},
		{
			"mesh":2,
			"name":"Object_9"
		},
		{
			"children":[
				4
			],
			"name":"/sketchfab-data/processing/6eab71859ab04438983aa54e0338d794.002"
		},
		{
			"mesh":3,
			"name":"Object_11"
		},
		{
			"children":[
				6
			],
			"name":"/sketchfab-data/processing/6eab71859ab04438983aa54e0338d794.003"
		},
		{
			"mesh":4,
			"name":"Object_13"
		},
		{
			"children":[
				8
			],
			"name":"/sketchfab-data/processing/6eab71859ab04438983aa54e0338d794.004"
		},
		{
			"mesh":5,
			"name":"Object_15"
		},
		{
			"children":[
				10
			],
			"name":"/sketchfab-data/processing/6eab71859ab04438983aa54e0338d794.005"
		},
		{
			"mesh":6,
			"name":"Object_17"
		},
		{
			"children":[
				12
			],
			"name":"/sketchfab-data/processing/6eab71859ab04438983aa54e0338d794.006"
		},
		{
			"mesh":7,
			"name":"Object_19"
		},
		{
			"children":[
				14
			],
			"name":"/sketchfab-data/processing/6eab71859ab04438983aa54e0338d794.007"
		},
		{
			"mesh":8,
			"name":"Object_21"
		},
		{
			"children":[
				16
			],
			"name":"/sketchfab-data/processing/6eab71859ab04438983aa54e0338d794.008"
		},
		{
			"mesh":9,
			"name":"Object_23"
		},
		{
			"children":[
				18
			],
			"name":"/sketchfab-data/processing/6eab71859ab04438983aa54e0338d794.009"
		},
		{
			"mesh":10,
			"name":"Object_25"
		},
		{
			"children":[
				20
			],
			"name":"/sketchfab-data/processing/6eab71859ab04438983aa54e0338d794.010"
		},
		{
			"mesh":11,
			"name":"Object_27"
		},
		{
			"children":[
				22
			],
			"name":"/sketchfab-data/processing/6eab71859ab04438983aa54e0338d794.011"
		},
		{
			"mesh":12,
			"name":"Object_29"
		},
		{
			"children":[
				24
			],
			"name":"/sketchfab-data/processing/6eab71859ab04438983aa54e0338d794.012"
		},
		{
			"mesh":13,
			"name":"Object_31"
		},
		{
			"children":[
				26
			],
			"name":"/sketchfab-data/processing/6eab71859ab04438983aa54e0338d794.013"
		},
		{
			"mesh":14,
			"name":"Object_33"
		},
		{
			"children":[
				28
			],
			"name":"/sketchfab-data/processing/6eab71859ab04438983aa54e0338d794.014"
		},
		{
			"mesh":15,
			"name":"Object_3"
		},
		{
			"children":[
				30
			],
			"name":"/sketchfab-data/processing/6eab71859ab04438983aa54e0338d794/pre"
		},
		{
			"children":[
				1,
				3,
				5,
				7,
				9,
				11,
				13,
				15,
				17,
				19,
				21,
				23,
				25,
				27,
				29,
				31
			],
			"name":"zbrush_concat.osgb.cleaner.gles"
		},
		{
			"children":[
				32
			],
			"name":"Sketchfab_model",
			"rotation":[
				-0.70710688829422,
				0,
				0,
				0.7071066498756409
			]
		}
	],
	"materials":[
		{
			"doubleSided":true,
			"name":"defaultMat_11",
			"pbrMetallicRoughness":{
				"baseColorFactor":[
					0.5899999737739563,
					0.5899999737739563,
					0.5899999737739563,
					1
				],
				"metallicFactor":0,
				"roughnessFactor":0.4000000059604645
			}
		},
		{
			"doubleSided":true,
			"name":"defaultMat_10",
			"pbrMetallicRoughness":{
				"baseColorFactor":[
					0.5799999833106995,
					0.5799999833106995,
					0.5799999833106995,
					1
				],
				"metallicFactor":0,
				"roughnessFactor":0.4000000059604645
			}
		},
		{
			"doubleSided":true,
			"name":"defaultMat_9",
			"pbrMetallicRoughness":{
				"baseColorFactor":[
					0.5899999737739563,
					0.5899999737739563,
					0.5899999737739563,
					1
				],
				"metallicFactor":0,
				"roughnessFactor":0.38999998569488525
			}
		},
		{
			"doubleSided":true,
			"name":"material_1",
			"pbrMetallicRoughness":{
				"baseColorFactor":[
					0.6000000238418579,
					0.6000000238418579,
					0.6000000238418579,
					1
				],
				"metallicFactor":0,
				"roughnessFactor":0.2199999988079071
			}
		},
		{
			"doubleSided":true,
			"name":"defaultMat_8",
			"pbrMetallicRoughness":{
				"baseColorFactor":[
					0.5899999737739563,
					0.5899999737739563,
					0.5899999737739563,
					1
				],
				"metallicFactor":0,
				"roughnessFactor":0.4000000059604645
			}
		},
		{
			"doubleSided":true,
			"name":"defaultMat_7",
			"pbrMetallicRoughness":{
				"baseColorFactor":[
					0.5899999737739563,
					0.5899999737739563,
					0.5899999737739563,
					1
				],
				"metallicFactor":0,
				"roughnessFactor":0.4000000059604645
			}
		},
		{
			"doubleSided":true,
			"name":"defaultMat_6",
			"pbrMetallicRoughness":{
				"baseColorFactor":[
					0.5899999737739563,
					0.5899999737739563,
					0.5899999737739563,
					1
				],
				"metallicFactor":0,
				"roughnessFactor":0.4000000059604645
			}
		},
		{
			"doubleSided":true,
			"name":"defaultMat_5",
			"pbrMetallicRoughness":{
				"baseColorFactor":[
					0.5899999737739563,
					0.5899999737739563,
					0.5899999737739563,
					1
				],
				"metallicFactor":0,
				"roughnessFactor":0.4099999964237213
			}
		},
		{
			"doubleSided":true,
			"name":"defaultMat_4",
			"pbrMetallicRoughness":{
				"baseColorFactor":[
					0.5899999737739563,
					0.5899999737739563,
					0.5899999737739563,
					1
				],
				"metallicFactor":0,
				"roughnessFactor":0.4000000059604645
			}
		},
		{
			"doubleSided":true,
			"name":"defaultMat_3",
			"pbrMetallicRoughness":{
				"baseColorFactor":[
					0.5899999737739563,
					0.5899999737739563,
					0.5899999737739563,
					1
				],
				"metallicFactor":0,
				"roughnessFactor":0.4000000059604645
			}
		},
		{
			"doubleSided":true,
			"name":"defaultMat_2",
			"pbrMetallicRoughness":{
				"baseColorFactor":[
					0.5899999737739563,
					0.5899999737739563,
					0.5899999737739563,
					1
				],
				"metallicFactor":0,
				"roughnessFactor":0.4000000059604645
			}
		},
		{
			"doubleSided":true,
			"name":"defaultMat_1",
			"pbrMetallicRoughness":{
				"baseColorFactor":[
					0.5899999737739563,
					0.5899999737739563,
					0.5899999737739563,
					1
				],
				"metallicFactor":0,
				"roughnessFactor":0.4000000059604645
			}
		},
		{
			"doubleSided":true,
			"name":"material_0",
			"pbrMetallicRoughness":{
				"baseColorFactor":[
					0.7099999785423279,
					0.7099999785423279,
					0.7099999785423279,
					1
				],
				"metallicFactor":0,
				"roughnessFactor":0.3700000047683716
			}
		},
		{
			"doubleSided":true,
			"name":"defaultMat_0",
			"pbrMetallicRoughness":{
				"baseColorFactor":[
					0.5899999737739563,
					0.5899999737739563,
					0.5899999737739563,
					1
				],
				"metallicFactor":0,
				"roughnessFactor":0.4099999964237213
			}
		},
		{
			"doubleSided":true,
			"name":"defaultMat",
			"pbrMetallicRoughness":{
				"baseColorFactor":[
					0.5899999737739563,
					0.5899999737739563,
					0.5899999737739563,
					1
				],
				"metallicFactor":0,
				"roughnessFactor":0.3100000023841858
			}
		},
		{
			"doubleSided":true,
			"name":"defaultMat_12",
			"pbrMetallicRoughness":{
				"baseColorFactor":[
					0.5799999833106995,
					0.5799999833106995,
					0.5799999833106995,
					1
				],
				"metallicFactor":0,
				"roughnessFactor":0.4000000059604645
			}
		}
	],
	"meshes":[
		{
			"name":"Object_1",
			"primitives":[
				{
					"attributes":{
						"POSITION":0,
						"NORMAL":1,
						"TEXCOORD_0":2
					},
					"indices":3,
					"material":0
				}
			]
		},
		{
			"name":"Object_2",
			"primitives":[
				{
					"attributes":{
						"POSITION":4,
						"NORMAL":5,
						"TEXCOORD_0":6
					},
					"indices":7,
					"material":1
				}
			]
		},
		{
			"name":"Object_3",
			"primitives":[
				{
					"attributes":{
						"POSITION":8,
						"NORMAL":9,
						"TEXCOORD_0":10
					},
					"indices":11,
					"material":2
				}
			]
		},
		{
			"name":"Object_4",
			"primitives":[
				{
					"attributes":{
						"POSITION":12,
						"NORMAL":13
					},
					"indices":14,
					"material":3
				}
			]
		},
		{
			"name":"Object_5",
			"primitives":[
				{
					"attributes":{
						"POSITION":15,
						"NORMAL":16,
						"TEXCOORD_0":17
					},
					"indices":18,
					"material":4
				}
			]
		},
		{
			"name":"Object_6",
			"primitives":[
				{
					"attributes":{
						"POSITION":19,
						"NORMAL":20,
						"TEXCOORD_0":21
					},
					"indices":22,
					"material":5
				}
			]
		},
		{
			"name":"Object_7",
			"primitives":[
				{
					"attributes":{
						"POSITION":23,
						"NORMAL":24,
						"TEXCOORD_0":25
					},
					"indices":26,
					"material":6
				}
			]
		},
		{
			"name":"Object_8",
			"primitives":[
				{
					"attributes":{
						"POSITION":27,
						"NORMAL":28,
						"TEXCOORD_0":29
					},
					"indices":30,
					"material":7
				}
			]
		},
		{
			"name":"Object_9",
			"primitives":[
				{
					"attributes":{
						"POSITION":31,
						"NORMAL":32,
						"TEXCOORD_0":33
					},
					"indices":34,
					"material":8
				}
			]
		},
		{
			"name":"Object_10",
			"primitives":[
				{
					"attributes":{
						"POSITION":35,
						"NORMAL":36,
						"TEXCOORD_0":37
					},
					"indices":38,
					"material":9
				}
			]
		},
		{
			"name":"Object_11",
			"primitives":[
				{
					"attributes":{
						"POSITION":39,
						"NORMAL":40,
						"TEXCOORD_0":41
					},
					"indices":42,
					"material":10
				}
			]
		},
		{
			"name":"Object_12",
			"primitives":[
				{
					"attributes":{
						"POSITION":43,
						"NORMAL":44,
						"TEXCOORD_0":45
					},
					"indices":46,
					"material":11
				}
			]
		},
		{
			"name":"Object_13",
			"primitives":[
				{
					"attributes":{
						"POSITION":47,
						"NORMAL":48
					},
					"indices":49,
					"material":12
				}
			]
		},
		{
			"name":"Object_14",
			"primitives":[
				{
					"attributes":{
						"POSITION":50,
						"NORMAL":51,
						"TEXCOORD_0":52
					},
					"indices":53,
					"material":13
				}
			]
		},
		{
			"name":"Object_15",
			"primitives":[
				{
					"attributes":{
						"POSITION":54,
						"NORMAL":55,
						"TEXCOORD_0":56
					},
					"indices":57,
					"material":14
				}
			]
		},
		{
			"name":"Object_0",
			"primitives":[
				{
					"attributes":{
						"POSITION":58,
						"NORMAL":59,
						"TEXCOORD_0":60
					},
					"indices":61,
					"material":15
				}
			]
		}
	],
	"accessors":[
		{
			"bufferView":0,
			"componentType":5126,
			"count":4501,
			"max":[
				10.056480407714844,
				5.999913215637207,
				13.062308311462402
			],
			"min":[
				-10.230775833129883,
				0.05803991109132767,
				5.632359504699707
			],
			"type":"VEC3"
		},
		{
			"bufferView":1,
			"componentType":5126,
			"count":4501,
			"type":"VEC3"
		},
		{
			"bufferView":2,
			"componentType":5126,
			"count":4501,
			"type":"VEC2"
		},
		{
			"bufferView":3,
			"componentType":5123,
			"count":14592,
			"type":"SCALAR"
		},
		{
			"bufferView":4,
			"componentType":5126,
			"count":3661,
			"max":[
				6.30255126953125,
				5.928444862365723,
				-22.274450302124023
			],
			"min":[
				-6.4701642990112305,
				1.979191780090332,
				-42.855995178222656
			],
			"type":"VEC3"
		},
		{
			"bufferView":5,
			"componentType":5126,
			"count":3661,
			"type":"VEC3"
		},
		{
			"bufferView":6,
			"componentType":5126,
			"count":3661,
			"type":"VEC2"
		},
		{
			"bufferView":7,
			"componentType":5123,
			"count":14592,
			"type":"SCALAR"
		},
		{
			"bufferView":8,
			"componentType":5126,
			"count":2996,
			"max":[
				5.422191619873047,
				3.961780548095703,
				-8.946860313415527
			],
			"min":[
				-5.602768421173096,
				1.269102692604065,
				-26.70883560180664
			],
			"type":"VEC3"
		},
		{
			"bufferView":9,
			"componentType":5126,
			"count":2996,
			"type":"VEC3"
		},
		{
			"bufferView":10,
			"componentType":5126,
			"count":2996,
			"type":"VEC2"
		},
		{
			"bufferView":11,
			"componentType":5123,
			"count":7296,
			"type":"SCALAR"
		},
		{
			"bufferView":12,
			"componentType":5126,
			"count":9560,
			"max":[
				12.954965591430664,
				5.672906398773193,
				21.73138427734375
			],
			"min":[
				-13.132711410522461,
				-4.128276348114014,
				-25.86768341064453
			],
			"type":"VEC3"
		},
		{
			"bufferView":13,
			"componentType":5126,
			"count":9560,
			"type":"VEC3"
		},
		{
			"bufferView":14,
			"componentType":5123,
			"count":32250,
			"type":"SCALAR"
		},
		{
			"bufferView":15,
			"componentType":5126,
			"count":11363,
			"max":[
				7.209687232971191,
				6.3312578201293945,
				19.20462417602539
			],
			"min":[
				-7.388650894165039,
				-2.4824812412261963,
				-6.130672931671143
			],
			"type":"VEC3"
		},
		{
			"bufferView":16,
			"componentType":5126,
			"count":11363,
			"type":"VEC3"
		},
		{
			"bufferView":17,
			"componentType":5126,
			"count":11363,
			"type":"VEC2"
		},
		{
			"bufferView":18,
			"componentType":5123,
			"count":29154,
			"type":"SCALAR"
		},
		{
			"bufferView":19,
			"componentType":5126,
			"count":6905,
			"max":[
				3.040112257003784,
				5.276490211486816,
				25.017919540405273
			],
			"min":[
				-3.2071409225463867,
				-3.413449287414551,
				15.75365924835205
			],
			"type":"VEC3"
		},
		{
			"bufferView":20,
			"componentType":5126,
			"count":6905,
			"type":"VEC3"
		},
		{
			"bufferView":21,
			"componentType":5126,
			"count":6905,
			"type":"VEC2"
		},
		{
			"bufferView":22,
			"componentType":5123,
			"count":14568,
			"type":"SCALAR"
		},
		{
			"bufferView":23,
			"componentType":5126,
			"count":4906,
			"max":[
				6.41317081451416,
				2.364396095275879,
				-4.8893537521362305
			],
			"min":[
				-6.584961891174316,
				-2.482517719268799,
				-27.50857162475586
			],
			"type":"VEC3"
		},
		{
			"bufferView":24,
			"componentType":5126,
			"count":4906,
			"type":"VEC3"
		},
		{
			"bufferView":25,
			"componentType":5126,
			"count":4906,
			"type":"VEC2"
		},
		{
			"bufferView":26,
			"componentType":5123,
			"count":14586,
			"type":"SCALAR"
		},
		{
			"bufferView":27,
			"componentType":5126,
			"count":10431,
			"max":[
				4.596017360687256,
				4.907154560089111,
				19.434415817260742
			],
			"min":[
				-4.771184921264648,
				-2.7854034900665283,
				9.78420639038086
			],
			"type":"VEC3"
		},
		{
			"bufferView":28,
			"componentType":5126,
			"count":10431,
			"type":"VEC3"
		},
		{
			"bufferView":29,
			"componentType":5126,
			"count":10431,
			"type":"VEC2"
		},
		{
			"bufferView":30,
			"componentType":5123,
			"count":29142,
			"type":"SCALAR"
		},
		{
			"bufferView":31,
			"componentType":5126,
			"count":4159,
			"max":[
				12.767550468444824,
				3.796161413192749,
				-3.4852206707000732
			],
			"min":[
				-12.94525146484375,
				-2.43359637260437,
				-17.36546516418457
			],
			"type":"VEC3"
		},
		{
			"bufferView":32,
			"componentType":5126,
			"count":4159,
			"type":"VEC3"
		},
		{
			"bufferView":33,
			"componentType":5126,
			"count":4159,
			"type":"VEC2"
		},
		{
			"bufferView":34,
			"componentType":5123,
			"count":7272,
			"type":"SCALAR"
		},
		{
			"bufferView":35,
			"componentType":5126,
			"count":8815,
			"max":[
				8.551412582397461,
				3.754504919052124,
				12.969161987304688
			],
			"min":[
				-8.725791931152344,
				-3.970412254333496,
				-9.338200569152832
			],
			"type":"VEC3"
		},
		{
			"bufferView":36,
			"componentType":5126,
			"count":8815,
			"type":"VEC3"
		},
		{
			"bufferView":37,
			"componentType":5126,
			"count":8815,
			"type":"VEC2"
		},
		{
			"bufferView":38,
			"componentType":5123,
			"count":29190,
			"type":"SCALAR"
		},
		{
			"bufferView":39,
			"componentType":5126,
			"count":12778,
			"max":[
				7.611123561859131,
				4.8762946128845215,
				-24.30614471435547
			],
			"min":[
				-7.788721084594727,
				-5.24826717376709,
				-43.05786895751953
			],
			"type":"VEC3"
		},
		{
			"bufferView":40,
			"componentType":5126,
			"count":12778,
			"type":"VEC3"
		},
		{
			"bufferView":41,
			"componentType":5126,
			"count":12778,
			"type":"VEC2"
		},
		{
			"bufferView":42,
			"componentType":5123,
			"count":29160,
			"type":"SCALAR"
		},
		{
			"bufferView":43,
			"componentType":5126,
			"count":3432,
			"max":[
				4.395162105560303,
				2.6508419513702393,
				-7.43162202835083
			],
			"min":[
				-4.572890281677246,
				-1.691516637802124,
				-26.064863204956055
			],
			"type":"VEC3"
		},
		{
			"bufferView":44,
			"componentType":5126,
			"count":3432,
			"type":"VEC3"
		},
		{
			"bufferView":45,
			"componentType":5126,
			"count":3432,
			"type":"VEC2"
		},
		{
			"bufferView":46,
			"componentType":5123,
			"count":7290,
			"type":"SCALAR"
		},
		{
			"bufferView":47,
			"componentType":5126,
			"count":27397,
			"max":[
				12.803559303283691,
				5.807070732116699,
				24.954130172729492
			],
			"min":[
				-12.974220275878906,
				-5.387698173522949,
				-43.1355094909668
			],
			"type":"VEC3"
		},
		{
			"bufferView":48,
			"componentType":5126,
			"count":27397,
			"type":"VEC3"
		},
		{
			"bufferView":49,
			"componentType":5123,
			"count":43674,
			"type":"SCALAR"
		},
		{
			"bufferView":50,
			"componentType":5126,
			"count":12774,
			"max":[
				12.977301597595215,
				5.714223384857178,
				2.7567660808563232
			],
			"min":[
				-13.155051231384277,
				-2.449050188064575,
				-18.04424476623535
			],
			"type":"VEC3"
		},
		{
			"bufferView":51,
			"componentType":5126,
			"count":12774,
			"type":"VEC3"
		},
		{
			"bufferView":52,
			"componentType":5126,
			"count":12774,
			"type":"VEC2"
		},
		{
			"bufferView":53,
			"componentType":5123,
			"count":29154,
			"type":"SCALAR"
		},
		{
			"bufferView":54,
			"componentType":5126,
			"count":4560,
			"max":[
				10.975018501281738,
				6.127892017364502,
				12.132196426391602
			],
			"min":[
				-11.157136917114258,
				0.9263680577278137,
				-1.2551501989364624
			],
			"type":"VEC3"
		},
		{
			"bufferView":55,
			"componentType":5126,
			"count":4560,
			"type":"VEC3"
		},
		{
			"bufferView":56,
			"componentType":5126,
			"count":4560,
			"type":"VEC2"
		},
		{
			"bufferView":57,
			"componentType":5123,
			"count":14592,
			"type":"SCALAR"
		},
		{
			"bufferView":58,
			"componentType":5126,
			"count":2318,
			"max":[
				6.319114685058594,
				6.000861644744873,
				-2.4995365142822266
			],
			"min":[
				-6.496852397918701,
				-1.7493294477462769,
				-13.681706428527832
			],
			"type":"VEC3"
		},
		{
			"bufferView":59,
			"componentType":5126,
			"count":2318,
			"type":"VEC3"
		},
		{
			"bufferView":60,
			"componentType":5126,
			"count":2318,
			"type":"VEC2"
		},
		{
			"bufferView":61,
			"componentType":5123,
			"count":7296,
			"type":"SCALAR"
		}
	],
	"bufferViews":[
		{
			"buffer":0,
			"byteLength":54012,
			"byteOffset":0,
			"target":34962
		},
		{
			"buffer":0,
			"byteLength":54012,
			"byteOffset":54012,
			"target":34962
		},
		{
			"buffer":0,
			"byteLength":36008,
			"byteOffset":108024,
			"target":34962
		},
		{
			"buffer":0,
			"byteLength":29184,
			"byteOffset":144032,
			"target":34963
		},
		{
			"buffer":0,
			"byteLength":43932,
			"byteOffset":173216,
			"target":34962
		},
		{
			"buffer":0,
			"byteLength":43932,
			"byteOffset":217148,
			"target":34962
		},
		{
			"buffer":0,
			"byteLength":29288,
			"byteOffset":261080,
			"target":34962
		},
		{
			"buffer":0,
			"byteLength":29184,
			"byteOffset":290368,
			"target":34963
		},
		{
			"buffer":0,
			"byteLength":35952,
			"byteOffset":319552,
			"target":34962
		},
		{
			"buffer":0,
			"byteLength":35952,
			"byteOffset":355504,
			"target":34962
		},
		{
			"buffer":0,
			"byteLength":23968,
			"byteOffset":391456,
			"target":34962
		},
		{
			"buffer":0,
			"byteLength":14592,
			"byteOffset":415424,
			"target":34963
		},
		{
			"buffer":0,
			"byteLength":114720,
			"byteOffset":430016,
			"target":34962
		},
		{
			"buffer":0,
			"byteLength":114720,
			"byteOffset":544736,
			"target":34962
		},
		{
			"buffer":0,
			"byteLength":64500,
			"byteOffset":659456,
			"target":34963
		},
		{
			"buffer":0,
			"byteLength":136356,
			"byteOffset":723956,
			"target":34962
		},
		{
			"buffer":0,
			"byteLength":136356,
			"byteOffset":860312,
			"target":34962
		},
		{
			"buffer":0,
			"byteLength":90904,
			"byteOffset":996668,
			"target":34962
		},
		{
			"buffer":0,
			"byteLength":58308,
			"byteOffset":1087572,
			"target":34963
		},
		{
			"buffer":0,
			"byteLength":82860,
			"byteOffset":1145880,
			"target":34962
		},
		{
			"buffer":0,
			"byteLength":82860,
			"byteOffset":1228740,
			"target":34962
		},
		{
			"buffer":0,
			"byteLength":55240,
			"byteOffset":1311600,
			"target":34962
		},
		{
			"buffer":0,
			"byteLength":29136,
			"byteOffset":1366840,
			"target":34963
		},
		{
			"buffer":0,
			"byteLength":58872,
			"byteOffset":1395976,
			"target":34962
		},
		{
			"buffer":0,
			"byteLength":58872,
			"byteOffset":1454848,
			"target":34962
		},
		{
			"buffer":0,
			"byteLength":39248,
			"byteOffset":1513720,
			"target":34962
		},
		{
			"buffer":0,
			"byteLength":29172,
			"byteOffset":1552968,
			"target":34963
		},
		{
			"buffer":0,
			"byteLength":125172,
			"byteOffset":1582140,
			"target":34962
		},
		{
			"buffer":0,
			"byteLength":125172,
			"byteOffset":1707312,
			"target":34962
		},
		{
			"buffer":0,
			"byteLength":83448,
			"byteOffset":1832484,
			"target":34962
		},
		{
			"buffer":0,
			"byteLength":58284,
			"byteOffset":1915932,
			"target":34963
		},
		{
			"buffer":0,
			"byteLength":49908,
			"byteOffset":1974216,
			"target":34962
		},
		{
			"buffer":0,
			"byteLength":49908,
			"byteOffset":2024124,
			"target":34962
		},
		{
			"buffer":0,
			"byteLength":33272,
			"byteOffset":2074032,
			"target":34962
		},
		{
			"buffer":0,
			"byteLength":14544,
			"byteOffset":2107304,
			"target":34963
		},
		{
			"buffer":0,
			"byteLength":105780,
			"byteOffset":2121848,
			"target":34962
		},
		{
			"buffer":0,
			"byteLength":105780,
			"byteOffset":2227628,
			"target":34962
		},
		{
			"buffer":0,
			"byteLength":70520,
			"byteOffset":2333408,
			"target":34962
		},
		{
			"buffer":0,
			"byteLength":58380,
			"byteOffset":2403928,
			"target":34963
		},
		{
			"buffer":0,
			"byteLength":153336,
			"byteOffset":2462308,
			"target":34962
		},
		{
			"buffer":0,
			"byteLength":153336,
			"byteOffset":2615644,
			"target":34962
		},
		{
			"buffer":0,
			"byteLength":102224,
			"byteOffset":2768980,
			"target":34962
		},
		{
			"buffer":0,
			"byteLength":58320,
			"byteOffset":2871204,
			"target":34963
		},
		{
			"buffer":0,
			"byteLength":41184,
			"byteOffset":2929524,
			"target":34962
		},
		{
			"buffer":0,
			"byteLength":41184,
			"byteOffset":2970708,
			"target":34962
		},
		{
			"buffer":0,
			"byteLength":27456,
			"byteOffset":3011892,
			"target":34962
		},
		{
			"buffer":0,
			"byteLength":14580,
			"byteOffset":3039348,
			"target":34963
		},
		{
			"buffer":0,
			"byteLength":328764,
			"byteOffset":3053928,
			"target":34962
		},
		{
			"buffer":0,
			"byteLength":328764,
			"byteOffset":3382692,
			"target":34962
		},
		{
			"buffer":0,
			"byteLength":87348,
			"byteOffset":3711456,
			"target":34963
		},
		{
			"buffer":0,
			"byteLength":153288,
			"byteOffset":3798804,
			"target":34962
		},
		{
			"buffer":0,
			"byteLength":153288,
			"byteOffset":3952092,
			"target":34962
		},
		{
			"buffer":0,
			"byteLength":102192,
			"byteOffset":4105380,
			"target":34962
		},
		{
			"buffer":0,
			"byteLength":58308,
			"byteOffset":4207572,
			"target":34963
		},
		{
			"buffer":0,
			"byteLength":54720,
			"byteOffset":4265880,
			"target":34962
		},
		{
			"buffer":0,
			"byteLength":54720,
			"byteOffset":4320600,
			"target":34962
		},
		{
			"buffer":0,
			"byteLength":36480,
			"byteOffset":4375320,
			"target":34962
		},
		{
			"buffer":0,
			"byteLength":29184,
			"byteOffset":4411800,
			"target":34963
		},
		{
			"buffer":0,
			"byteLength":27816,
			"byteOffset":4440984,
			"target":34962
		},
		{
			"buffer":0,
			"byteLength":27816,
			"byteOffset":4468800,
			"target":34962
		},
		{
			"buffer":0,
			"byteLength":18544,
			"byteOffset":4496616,
			"target":34962
		},
		{
			"buffer":0,
			"byteLength":14592,
			"byteOffset":4515160,
			"target":34963
		}
	],
	"buffers":[
		{
			"byteLength":4529752,
			"uri":"musculos.bin"
		}
	]
}
